<mxfile host="65bd71144e">
    <diagram id="oFIg-IRMYorYpmVigN7u" name="Page-1">
        <mxGraphModel dx="1503" dy="1690" grid="1" gridSize="10" guides="1" tooltips="1" connect="1" arrows="1" fold="1" page="1" pageScale="1" pageWidth="1169" pageHeight="827" background="#ffffff" math="0" shadow="0">
            <root>
                <mxCell id="0"/>
                <mxCell id="1" parent="0"/>
                <mxCell id="2" value="FreeCAD" style="rounded=0;whiteSpace=wrap;html=1;labelBackgroundColor=none;fillColor=#FFFFFF;fontColor=#000000;strokeColor=#000000;" vertex="1" parent="1">
                    <mxGeometry x="10" y="130" width="120" height="60" as="geometry"/>
                </mxCell>
                <mxCell id="5" style="edgeStyle=none;html=1;exitX=0;exitY=0.5;exitDx=0;exitDy=0;entryX=1;entryY=0.5;entryDx=0;entryDy=0;startArrow=classic;startFill=1;labelBackgroundColor=none;fontColor=#000000;strokeColor=#000000;" edge="1" parent="1" source="3" target="2">
                    <mxGeometry relative="1" as="geometry"/>
                </mxCell>
                <mxCell id="34" style="edgeStyle=none;html=1;exitX=0.5;exitY=1;exitDx=0;exitDy=0;fontSize=11;startArrow=none;startFill=0;endArrow=classic;endFill=1;labelBackgroundColor=none;fontColor=#000000;strokeColor=#000000;" edge="1" parent="1" source="3" target="20">
                    <mxGeometry relative="1" as="geometry"/>
                </mxCell>
                <mxCell id="47" value="Generated mesh" style="edgeLabel;html=1;align=center;verticalAlign=middle;resizable=0;points=[];fontSize=10;fontFamily=Helvetica;fontColor=#000000;labelBackgroundColor=none;" vertex="1" connectable="0" parent="34">
                    <mxGeometry x="-0.6277" relative="1" as="geometry">
                        <mxPoint x="40" y="13" as="offset"/>
                    </mxGeometry>
                </mxCell>
                <mxCell id="3" value="FreeCAD&lt;br&gt;Python Wrapper CLI&lt;br&gt;&lt;font face=&quot;Lucida Console&quot;&gt;freecad/freecad.py&lt;/font&gt;" style="rounded=0;whiteSpace=wrap;html=1;labelBackgroundColor=none;fillColor=#FFFFFF;fontColor=#000000;strokeColor=#000000;" vertex="1" parent="1">
                    <mxGeometry x="160" y="130" width="160" height="60" as="geometry"/>
                </mxCell>
                <mxCell id="4" value="Source CAD files" style="rounded=0;whiteSpace=wrap;html=1;fillColor=#FFFFFF;labelBackgroundColor=none;fontColor=#000000;strokeColor=#000000;" vertex="1" parent="1">
                    <mxGeometry x="10" y="10" width="120" height="60" as="geometry"/>
                </mxCell>
                <mxCell id="10" value="" style="endArrow=classic;html=1;entryX=0.5;entryY=0;entryDx=0;entryDy=0;exitX=1;exitY=0.5;exitDx=0;exitDy=0;labelBackgroundColor=none;fontColor=#000000;strokeColor=#000000;" edge="1" parent="1" source="4" target="3">
                    <mxGeometry width="50" height="50" relative="1" as="geometry">
                        <mxPoint x="310" y="160" as="sourcePoint"/>
                        <mxPoint x="360" y="110" as="targetPoint"/>
                        <Array as="points">
                            <mxPoint x="240" y="40"/>
                        </Array>
                    </mxGeometry>
                </mxCell>
                <mxCell id="11" value="OpenSCAD" style="rounded=0;whiteSpace=wrap;html=1;labelBackgroundColor=none;fillColor=#FFFFFF;fontColor=#000000;strokeColor=#000000;" vertex="1" parent="1">
                    <mxGeometry x="10" y="330" width="120" height="60" as="geometry"/>
                </mxCell>
                <mxCell id="13" style="edgeStyle=none;html=1;exitX=0;exitY=0.5;exitDx=0;exitDy=0;entryX=1;entryY=0.5;entryDx=0;entryDy=0;startArrow=classic;startFill=1;labelBackgroundColor=none;fontColor=#000000;strokeColor=#000000;" edge="1" parent="1" source="12" target="11">
                    <mxGeometry relative="1" as="geometry"/>
                </mxCell>
                <mxCell id="35" style="edgeStyle=none;html=1;exitX=0.5;exitY=0;exitDx=0;exitDy=0;entryX=0.5;entryY=1;entryDx=0;entryDy=0;fontSize=11;startArrow=none;startFill=0;endArrow=classic;endFill=1;labelBackgroundColor=none;fontColor=#000000;strokeColor=#000000;" edge="1" parent="1" source="12" target="20">
                    <mxGeometry relative="1" as="geometry"/>
                </mxCell>
                <mxCell id="48" value="Generated preview image" style="edgeLabel;html=1;align=center;verticalAlign=middle;resizable=0;points=[];fontSize=10;fontFamily=Helvetica;fontColor=#000000;labelBackgroundColor=none;" vertex="1" connectable="0" parent="35">
                    <mxGeometry x="0.5944" y="2" relative="1" as="geometry">
                        <mxPoint x="67" y="12" as="offset"/>
                    </mxGeometry>
                </mxCell>
                <mxCell id="12" value="OpenSCAD&lt;br&gt;Python Wrapper CLI&lt;br&gt;&lt;font face=&quot;Lucida Console&quot;&gt;openscad/openscad.py&lt;/font&gt;" style="rounded=0;whiteSpace=wrap;html=1;labelBackgroundColor=none;fillColor=#FFFFFF;fontColor=#000000;strokeColor=#000000;" vertex="1" parent="1">
                    <mxGeometry x="160" y="330" width="160" height="60" as="geometry"/>
                </mxCell>
                <mxCell id="15" style="edgeStyle=none;html=1;exitX=0;exitY=0.5;exitDx=0;exitDy=0;entryX=1;entryY=0.5;entryDx=0;entryDy=0;labelBackgroundColor=none;strokeColor=#000000;" edge="1" parent="1" source="14" target="3">
                    <mxGeometry relative="1" as="geometry"/>
                </mxCell>
                <mxCell id="16" style="edgeStyle=none;html=1;exitX=0.5;exitY=1;exitDx=0;exitDy=0;entryX=1;entryY=0.5;entryDx=0;entryDy=0;labelBackgroundColor=none;fontColor=#000000;strokeColor=#000000;" edge="1" parent="1" source="14" target="12">
                    <mxGeometry relative="1" as="geometry">
                        <Array as="points">
                            <mxPoint x="470" y="360"/>
                        </Array>
                    </mxGeometry>
                </mxCell>
                <mxCell id="23" style="edgeStyle=none;html=1;exitX=1;exitY=0.25;exitDx=0;exitDy=0;entryX=0.5;entryY=0;entryDx=0;entryDy=0;fontSize=21;labelBackgroundColor=none;fontColor=#000000;strokeColor=#000000;" edge="1" parent="1" source="4" target="14">
                    <mxGeometry relative="1" as="geometry">
                        <Array as="points">
                            <mxPoint x="470" y="25"/>
                        </Array>
                    </mxGeometry>
                </mxCell>
                <mxCell id="24" value="Get available files and parameters&amp;nbsp;" style="edgeLabel;html=1;align=center;verticalAlign=middle;resizable=0;points=[];fontSize=11;labelBackgroundColor=none;fontColor=#000000;" vertex="1" connectable="0" parent="23">
                    <mxGeometry x="0.1682" y="-1" relative="1" as="geometry">
                        <mxPoint x="-7" y="14" as="offset"/>
                    </mxGeometry>
                </mxCell>
                <mxCell id="27" style="edgeStyle=none;html=1;exitX=0;exitY=0.5;exitDx=0;exitDy=0;fontSize=11;entryX=1;entryY=0.5;entryDx=0;entryDy=0;labelBackgroundColor=none;fontColor=#000000;strokeColor=#000000;" edge="1" parent="1" source="17" target="14">
                    <mxGeometry relative="1" as="geometry"/>
                </mxCell>
                <mxCell id="40" value="&lt;span style=&quot;font-family: Helvetica; font-size: 11px;&quot;&gt;Model and parameter requrest&lt;/span&gt;" style="edgeLabel;html=1;align=center;verticalAlign=middle;resizable=0;points=[];fontSize=10;fontFamily=Lucida Console;labelBackgroundColor=none;fontColor=#000000;" vertex="1" connectable="0" parent="27">
                    <mxGeometry x="-0.2334" y="2" relative="1" as="geometry">
                        <mxPoint x="-32" y="-12" as="offset"/>
                    </mxGeometry>
                </mxCell>
                <mxCell id="37" style="edgeStyle=none;html=1;exitX=1;exitY=0.75;exitDx=0;exitDy=0;entryX=0;entryY=0.75;entryDx=0;entryDy=0;fontSize=11;startArrow=none;startFill=0;endArrow=classic;endFill=1;labelBackgroundColor=none;fontColor=#000000;strokeColor=#000000;" edge="1" parent="1" source="14" target="17">
                    <mxGeometry relative="1" as="geometry"/>
                </mxCell>
                <mxCell id="41" value="&lt;span style=&quot;font-family: Helvetica; font-size: 11px;&quot;&gt;Serve generated mesh and preview image&lt;/span&gt;" style="edgeLabel;html=1;align=center;verticalAlign=middle;resizable=0;points=[];fontSize=10;fontFamily=Lucida Console;labelBackgroundColor=none;fontColor=#000000;" vertex="1" connectable="0" parent="37">
                    <mxGeometry x="0.1291" y="-3" relative="1" as="geometry">
                        <mxPoint x="-10" y="-18" as="offset"/>
                    </mxGeometry>
                </mxCell>
                <mxCell id="14" value="Flask Web Server&lt;br&gt;&lt;font face=&quot;Lucida Console&quot;&gt;app/model_generator_service.py&lt;/font&gt;" style="rounded=0;whiteSpace=wrap;html=1;labelBackgroundColor=none;fillColor=#FFFFFF;fontColor=#000000;strokeColor=#000000;" vertex="1" parent="1">
                    <mxGeometry x="350" y="90" width="240" height="140" as="geometry"/>
                </mxCell>
                <mxCell id="21" style="edgeStyle=none;html=1;fontSize=21;entryX=0;entryY=0.25;entryDx=0;entryDy=0;exitX=1;exitY=0.25;exitDx=0;exitDy=0;labelBackgroundColor=none;fontColor=#000000;strokeColor=#000000;" edge="1" parent="1" source="14" target="17">
                    <mxGeometry relative="1" as="geometry">
                        <mxPoint x="410" y="145" as="sourcePoint"/>
                        <mxPoint x="570" y="90" as="targetPoint"/>
                    </mxGeometry>
                </mxCell>
                <mxCell id="39" value="&lt;span style=&quot;font-family: Helvetica; font-size: 11px;&quot;&gt;Present available files and parameters&amp;nbsp;&lt;/span&gt;" style="edgeLabel;html=1;align=center;verticalAlign=middle;resizable=0;points=[];fontSize=10;fontFamily=Lucida Console;labelBackgroundColor=none;fontColor=#000000;" vertex="1" connectable="0" parent="21">
                    <mxGeometry relative="1" as="geometry">
                        <mxPoint x="5" y="-8" as="offset"/>
                    </mxGeometry>
                </mxCell>
                <mxCell id="17" value="User" style="rounded=0;whiteSpace=wrap;html=1;labelBackgroundColor=none;fillColor=#FFFFFF;fontColor=#000000;strokeColor=#000000;" vertex="1" parent="1">
                    <mxGeometry x="840.24" y="90" width="120" height="140" as="geometry"/>
                </mxCell>
                <mxCell id="36" style="edgeStyle=none;html=1;exitX=1;exitY=0.5;exitDx=0;exitDy=0;entryX=0.25;entryY=1;entryDx=0;entryDy=0;fontSize=11;startArrow=none;startFill=0;endArrow=classic;endFill=1;labelBackgroundColor=none;fontColor=#000000;strokeColor=#000000;" edge="1" parent="1" source="20" target="14">
                    <mxGeometry relative="1" as="geometry">
                        <Array as="points">
                            <mxPoint x="410" y="260"/>
                        </Array>
                    </mxGeometry>
                </mxCell>
                <mxCell id="20" value="Generated mesh files&lt;br&gt;and preview images" style="rounded=0;whiteSpace=wrap;html=1;labelBackgroundColor=none;fillColor=#FFFFFF;fontColor=#000000;strokeColor=#000000;" vertex="1" parent="1">
                    <mxGeometry x="160" y="230" width="160" height="60" as="geometry"/>
                </mxCell>
                <mxCell id="25" value="Read file" style="edgeLabel;html=1;align=center;verticalAlign=middle;resizable=0;points=[];fontSize=11;labelBackgroundColor=none;fontColor=#000000;" vertex="1" connectable="0" parent="1">
                    <mxGeometry x="260" y="80" as="geometry">
                        <mxPoint x="9" y="8" as="offset"/>
                    </mxGeometry>
                </mxCell>
            </root>
        </mxGraphModel>
    </diagram>
</mxfile>